<?xml version="1.0" encoding="utf-8"?>
<!-- Generator: Adobe Illustrator 22.0.1, SVG Export Plug-In . SVG Version: 6.00 Build 0)  -->
<svg version="1.1" id="Layer_1" xmlns="http://www.w3.org/2000/svg" xmlns:xlink="http://www.w3.org/1999/xlink" x="0px" y="0px"
	 viewBox="0 0 1104 330" style="enable-background:new 0 0 1104 330;" xml:space="preserve">
<style type="text/css">
	.st0{fill:none;stroke:#375445;stroke-width:2;stroke-miterlimit:10;}
</style>
<g>
	<path class="st0" d="M225.5,113c-1.4-3.8-2.6-7.4-3.8-11c-1.1-3.5-2.3-7.3-3.6-11.1c-1.3-3.9-2.7-8.7-4.3-14.4
		c-1.8,5.7-3.3,10.6-4.5,14.6c-1.1,4-2.3,7.7-3.4,11.1c-1.1,3.4-2.3,7-3.6,10.8c-1.3,3.8-2.8,8.2-4.6,13.2l-20.9,58h74.1l-20.6-58
		C228.5,121.2,226.9,116.8,225.5,113z"/>
	<path class="st0" d="M574.2,208.2c-5.6,5-8.4,12-8.4,20.9v4.8c0,9.1,3.2,15.8,9.6,19.9c6.4,4.1,14.1,6.2,23,6.2
		c8.2,0,15.4-1,21.4-2.9c6.1-1.9,11.6-4.9,16.6-8.7c4.6-3.4,7.8-7.4,9.8-11.8c1.9-4.5,2.9-10.2,2.9-17.3v-18.5h-47
		C589.2,200.6,579.8,203.2,574.2,208.2z"/>
	<path class="st0" d="M-6.9-2.2V332h1118V-2.2H-6.9z M287.3,286.1l-26.1-72.7h-94.7l-26.1,72.7h-34.6l91.9-247.3h32.9l92.3,247.3
		H287.3z M457.8,286.1l-38.1-146.1H419l-37.7,146.1h-39.1L293.4,98.4h35l34.3,153h0.7l39.8-153h33.6l39.5,153h0.7l35-153h32.9
		l-48,187.7H457.8z M682.1,286.1h-31.9v-22.6h-0.3c-1.8,3.4-4.3,6.6-7.4,9.4c-3.1,2.9-6.5,5.3-10.1,7.4c-5,2.7-10.5,4.9-16.3,6.3
		c-5.8,1.5-12.9,2.2-21.1,2.2c-19,0-34-4.7-45.1-14.1c-11.1-9.4-16.6-22.3-16.6-38.8v-9.3c0-16,5.4-29,16.1-39.1
		c10.7-10.1,28.1-15.1,52.1-15.1h47.7v-11c0-12.6-3-21.9-9.1-28c-6.1-6.1-16-9.1-29.7-9.1c-11,0-20.5,1.7-28.6,5.1
		c-8.1,3.4-16.5,8-25.2,13.7l-16.5-24.7c9.1-6.4,19.4-11.9,30.9-16.6c11.4-4.7,24.7-7,39.8-7c10.5,0,20.1,1.3,28.8,3.9
		c8.7,2.6,16.2,6.5,22.5,11.7c6.3,5.1,11.2,11.4,14.8,18.9c3.5,7.4,5.3,15.8,5.3,25.2V286.1z M778.2,126.5c-6.2,0-12.1,1.2-17.7,3.6
		c-5.6,2.4-10.5,5.8-14.6,10.3c-4.1,4.5-7.4,9.8-9.9,16c-2.5,6.2-3.8,12.9-3.8,20.2v109.4h-33.3V98.4h32.2v29.8h0.3
		c5.5-10.5,12.6-18.7,21.4-24.5c8.8-5.8,20.1-8.7,33.8-8.7c8.2,0,16.3,1.3,24.4,3.8l-9.9,32.2c-3.2-1.4-6.7-2.5-10.5-3.3
		C786.9,126.9,782.7,126.5,778.2,126.5z M958.6,286.1h-31.9v-23.3H926c-5.3,9.6-12.8,16.3-22.5,20.2c-9.7,3.9-20.4,5.8-32.1,5.8
		c-23.8,0-41.9-6.9-54.4-20.8c-12.5-13.8-18.7-33.6-18.7-59.2v-33.3c0-12.6,1.8-23.9,5.5-34c3.7-10.1,8.7-18.5,15.3-25.4
		c6.5-6.9,14.3-12.1,23.5-15.8c9.1-3.7,19.2-5.5,30.2-5.5c14.4,0,25.8,2.5,34.1,7.4c8.3,4.9,14.5,10.1,18.4,15.6V26.7h33.3V286.1z"
		/>
	<path class="st0" d="M911.8,136.7c-4.5-3.8-9.7-6.8-15.8-9.1c-6.1-2.3-12.6-3.4-19.7-3.4c-14.2,0-25.2,4.9-33.1,14.8
		c-7.9,9.8-11.8,23.7-11.8,41.5v23c0,17.8,4,31.7,12,41.5c8,9.8,19,14.8,32.9,14.8c6.9,0,13.3-1.1,19.2-3.3
		c5.9-2.2,11.1-5.3,15.6-9.4c4.5-4.1,8-9.1,10.6-14.9c2.6-5.8,3.9-12.4,3.9-19.7v-48.4c0-4.8-1.2-9.6-3.6-14.4
		C919.7,144.7,916.3,140.4,911.8,136.7z"/>
</g>
</svg>
