<?xml version="1.0" encoding="utf-8"?>
<!-- Generator: Adobe Illustrator 22.0.1, SVG Export Plug-In . SVG Version: 6.00 Build 0)  -->
<svg version="1.1" id="Layer_1" xmlns="http://www.w3.org/2000/svg" xmlns:xlink="http://www.w3.org/1999/xlink" x="0px" y="0px"
	 viewBox="0 0 2200 880" style="enable-background:new 0 0 2200 880;" xml:space="preserve">
<style type="text/css">
	.st0{fill:#FFFFFF;stroke:#5AC4C1;stroke-width:2;stroke-miterlimit:10;}
</style>
<path class="st0" d="M1192.9,521.9c-13.7,12.3-20.6,29.4-20.6,51.2v11.7c0,22.4,7.8,38.6,23.5,48.7c15.7,10.1,34.4,15.1,56.2,15.1
	c20.1,0,37.6-2.4,52.4-7.1c14.8-4.7,28.4-11.9,40.7-21.4c11.2-8.4,19.2-18,23.9-28.9c4.7-10.9,7.1-25,7.1-42.4v-45.3h-115
	C1229.4,503.5,1206.6,509.6,1192.9,521.9z"/>
<path class="st0" d="M345,289.1c-3.4-9.2-6.4-18.2-9.2-26.9c-2.8-8.7-5.7-17.8-8.8-27.3c-3.1-9.5-6.6-21.3-10.5-35.2
	c-4.5,14-8.1,25.9-10.9,35.7c-2.8,9.8-5.6,18.9-8.4,27.3c-2.8,8.4-5.7,17.2-8.8,26.4c-3.1,9.2-6.9,20-11.3,32.3l-51.2,141.8h181.2
	l-50.3-141.8C352.3,309.1,348.4,298.3,345,289.1z"/>
<path class="st0" d="M-22.3-16.2v918.1h2244.2V-16.2H-22.3z M496,712.4l-63.8-177.9H200.7l-63.8,177.9H52.2l224.9-605h80.6
	l225.7,605H496z M1456.8,712.4h-78V657h-0.8c-4.5,8.4-10.5,16.1-18,23.1c-7.6,7-15.8,13-24.8,18c-12.3,6.7-25.6,11.9-39.9,15.5
	c-14.3,3.6-31.5,5.5-51.6,5.5c-46.4,0-83.2-11.5-110.3-34.4c-27.1-22.9-40.7-54.5-40.7-94.8v-22.7c0-39.1,13.1-71,39.4-95.7
	c26.3-24.6,68.8-36.9,127.5-36.9h116.6v-26.9c0-30.8-7.4-53.6-22.2-68.4c-14.8-14.8-39-22.2-72.6-22.2c-26.8,0-50.2,4.2-70.1,12.6
	c-19.9,8.4-40.4,19.6-61.7,33.6l-39.1-58.7l-104.4,407.7h-95.7l-93.1-357.4h-1.7l-92.3,357.4h-95.7l-119.1-459h85.6l83.9,374.2h1.7
	l97.3-374.2h82.2l96.5,374.2h1.7l85.6-374.2h80.6l-12.3,48.2c21.9-15.1,46.4-28.2,73.6-39.4c28-11.5,60.4-17.2,97.3-17.2
	c25.7,0,49.2,3.2,70.5,9.6c21.3,6.4,39.6,15.9,55,28.5c15.4,12.6,27.4,28,36.1,46.1c8.7,18.2,13,38.7,13,61.7V712.4z M1689.2,322.2
	c-15.1,0-29.5,2.9-43.2,8.8c-13.7,5.9-25.6,14.3-35.7,25.2c-10.1,10.9-18.2,23.9-24.3,39c-6.2,15.1-9.2,31.6-9.2,49.5v267.7h-81.4
	v-459h78.9v73h0.8c13.4-25.7,30.9-45.7,52.4-60c21.5-14.3,49.1-21.4,82.6-21.4c20.1,0,40,3.1,59.6,9.2l-24.3,78.9
	c-7.8-3.4-16.4-6-25.6-8C1710.6,323.2,1700.4,322.2,1689.2,322.2z M2128,712.4h-78v-57.1h-1.7c-12.9,23.5-31.2,40-55,49.5
	c-23.8,9.5-49.9,14.3-78.5,14.3c-58.2,0-102.5-16.9-133-50.8c-30.5-33.8-45.7-82.1-45.7-144.7v-81.4c0-30.8,4.5-58.4,13.4-83.1
	c8.9-24.6,21.4-45.3,37.3-62.1s35.1-29.6,57.5-38.6c22.4-8.9,47-13.4,73.8-13.4c35.2,0,63.1,6,83.5,18c20.4,12,35.4,24.8,44.9,38.2
	V78.1h81.4V712.4z"/>
<path class="st0" d="M2013.5,347c-10.9-9.2-23.8-16.6-38.6-22.2c-14.8-5.6-30.9-8.4-48.2-8.4c-34.7,0-61.7,12-81,36.1
	c-19.3,24.1-28.9,57.9-28.9,101.5v56.2c0,43.6,9.8,77.5,29.4,101.5c19.6,24.1,46.4,36.1,80.6,36.1c16.8,0,32.4-2.6,47-8
	c14.5-5.3,27.3-13,38.2-23.1c10.9-10.1,19.6-22.2,26-36.5c6.4-14.3,9.6-30.3,9.6-48.2V413.7c0-11.7-2.9-23.5-8.8-35.2
	C2032.8,366.7,2024.4,356.2,2013.5,347z"/>
</svg>
